# xmcd
#
# Track frame offsets:
#	150
#	16805
#	34867
#	50880
#	70405
#	86445
#	105917
#	121602
#	141145
#	155509
#	171097
#	188785
#	201132
#
# Disc length: 2882 seconds
#
# Revision: 1
# Processed by: cddbd v1.5.1PL0 Copyright (c) Steve Scherf et al.
# Submitted via: audiograbber 1.81.02
#
DISCID=a70b400d
DTITLE=Carlos Roncal - Flöten der Anden
DYEAR=2005
DGENRE=Instrumental
TTITLE0=El Condor Pasa
TTITLE1=Jahwe
TTITLE2=Bewahre uns, Gott
TTITLE3=Mas Alla De Las Nubes
TTITLE4=Mi Peru
TTITLE5=Amazing Grace
TTITLE6=El Carretero
TTITLE7=Fina Estampa
TTITLE8=Noches De Moscu
TTITLE9=Hatikva
TTITLE10=Libertad
TTITLE11=Paz
TTITLE12=Zumba Zumba
EXTD=
EXTT0=
EXTT1=
EXTT2=
EXTT3=
EXTT4=
EXTT5=
EXTT6=
EXTT7=
EXTT8=
EXTT9=
EXTT10=
EXTT11=
EXTT12=
PLAYORDER=
